<svg preserveAspectRatio="none" overflow="visible" style="display: block;" width="24.0155" height="24.0155" viewBox="0 0 24.0155 24.0155" fill="none" xmlns="http://www.w3.org/2000/svg">
<g id="entrance-stairs">
<path id="Vector" d="M4.00302 10.0063C4.00302 5.58516 7.58705 2.00113 12.0082 2.00113C16.4293 2.00113 20.0133 5.58516 20.0133 10.0063V18.6786C20.0133 19.9255 20.0133 20.549 19.7453 21.0134C19.5696 21.3176 19.3169 21.5703 19.0127 21.7459C18.5483 22.014 17.9248 22.014 16.6779 22.014H7.3385C6.09154 22.014 5.46806 22.014 5.00366 21.7459C4.69942 21.5703 4.44679 21.3176 4.27114 21.0134C4.00302 20.549 4.00302 19.9255 4.00302 18.6786V10.0063Z" stroke="#FEFEFE" stroke-width="1.50097" stroke-linecap="round" stroke-linejoin="round"/>
<path id="Vector_2" d="M20.013 18.0117H9.0059C8.06248 18.0117 7.59078 18.0117 7.29769 18.3048C7.00461 18.5979 7.00461 19.0696 7.00461 20.013V22.0143" stroke="#FEFEFE" stroke-width="1.50097" stroke-linecap="round" stroke-linejoin="round"/>
<path id="Vector_3" d="M20.0132 14.0089H13.0087C12.0653 14.0089 11.5936 14.0089 11.3005 14.302C11.0074 14.5951 11.0074 15.0668 11.0074 16.0102V18.0115" stroke="#FEFEFE" stroke-width="1.50097" stroke-linecap="round" stroke-linejoin="round"/>
<path id="Vector_4" d="M20.0131 10.0067H17.0112C16.0678 10.0067 15.5961 10.0067 15.303 10.2998C15.0099 10.5929 15.0099 11.0646 15.0099 12.008V14.0093" stroke="#FEFEFE" stroke-width="1.50097" stroke-linecap="round" stroke-linejoin="round"/>
</g>
</svg>
